<mxfile host="65bd71144e">
    <diagram id="gzaNgbsuUqQqgInXljIO" name="Page-1">
        <mxGraphModel dx="282" dy="1305" grid="1" gridSize="10" guides="1" tooltips="1" connect="1" arrows="1" fold="1" page="1" pageScale="1" pageWidth="850" pageHeight="1100" math="0" shadow="0">
            <root>
                <mxCell id="0"/>
                <mxCell id="1" parent="0"/>
                <mxCell id="t1EwCxlQCWWe_yxfTkzI-1" value="" style="rounded=0;whiteSpace=wrap;html=1;" parent="1" vertex="1">
                    <mxGeometry y="-80" width="920" height="1040" as="geometry"/>
                </mxCell>
                <mxCell id="Fh-EWv3gf_aP62KcKHGf-85" value="" style="rounded=0;whiteSpace=wrap;html=1;fillColor=#bac8d3;strokeColor=#23445d;" parent="1" vertex="1">
                    <mxGeometry x="80" y="590" width="600" height="160" as="geometry"/>
                </mxCell>
                <mxCell id="Fh-EWv3gf_aP62KcKHGf-84" value="" style="rounded=0;whiteSpace=wrap;html=1;fillColor=#dae8fc;strokeColor=#6c8ebf;" parent="1" vertex="1">
                    <mxGeometry x="80" y="750" width="600" height="130" as="geometry"/>
                </mxCell>
                <mxCell id="Fh-EWv3gf_aP62KcKHGf-82" value="" style="rounded=0;whiteSpace=wrap;html=1;fillColor=#dae8fc;strokeColor=#6c8ebf;" parent="1" vertex="1">
                    <mxGeometry x="80" y="-10" width="600" height="600" as="geometry"/>
                </mxCell>
                <mxCell id="Fh-EWv3gf_aP62KcKHGf-1" value="Router" style="rounded=0;whiteSpace=wrap;html=1;" parent="1" vertex="1">
                    <mxGeometry x="320" y="400" width="120" height="60" as="geometry"/>
                </mxCell>
                <mxCell id="Fh-EWv3gf_aP62KcKHGf-36" style="edgeStyle=orthogonalEdgeStyle;rounded=0;orthogonalLoop=1;jettySize=auto;html=1;" parent="1" source="Fh-EWv3gf_aP62KcKHGf-2" target="Fh-EWv3gf_aP62KcKHGf-5" edge="1">
                    <mxGeometry relative="1" as="geometry"/>
                </mxCell>
                <mxCell id="Fh-EWv3gf_aP62KcKHGf-2" value="index.ts&lt;br&gt;" style="shape=hexagon;perimeter=hexagonPerimeter2;whiteSpace=wrap;html=1;fixedSize=1;" parent="1" vertex="1">
                    <mxGeometry x="320" y="40" width="120" height="80" as="geometry"/>
                </mxCell>
                <mxCell id="Fh-EWv3gf_aP62KcKHGf-43" style="edgeStyle=orthogonalEdgeStyle;rounded=0;orthogonalLoop=1;jettySize=auto;html=1;entryX=0.5;entryY=0;entryDx=0;entryDy=0;" parent="1" source="Fh-EWv3gf_aP62KcKHGf-4" target="Fh-EWv3gf_aP62KcKHGf-41" edge="1">
                    <mxGeometry relative="1" as="geometry"/>
                </mxCell>
                <mxCell id="Fh-EWv3gf_aP62KcKHGf-4" value="app.ts" style="shape=hexagon;perimeter=hexagonPerimeter2;whiteSpace=wrap;html=1;fixedSize=1;" parent="1" vertex="1">
                    <mxGeometry x="320" y="240" width="120" height="80" as="geometry"/>
                </mxCell>
                <mxCell id="Fh-EWv3gf_aP62KcKHGf-37" style="edgeStyle=orthogonalEdgeStyle;rounded=0;orthogonalLoop=1;jettySize=auto;html=1;" parent="1" source="Fh-EWv3gf_aP62KcKHGf-5" target="Fh-EWv3gf_aP62KcKHGf-4" edge="1">
                    <mxGeometry relative="1" as="geometry"/>
                </mxCell>
                <mxCell id="Fh-EWv3gf_aP62KcKHGf-5" value="server.ts" style="shape=hexagon;perimeter=hexagonPerimeter2;whiteSpace=wrap;html=1;fixedSize=1;" parent="1" vertex="1">
                    <mxGeometry x="320" y="140" width="120" height="80" as="geometry"/>
                </mxCell>
                <mxCell id="Fh-EWv3gf_aP62KcKHGf-6" value="Controller" style="rounded=0;whiteSpace=wrap;html=1;" parent="1" vertex="1">
                    <mxGeometry x="320" y="480" width="120" height="60" as="geometry"/>
                </mxCell>
                <mxCell id="Fh-EWv3gf_aP62KcKHGf-7" value="Logics" style="rounded=0;whiteSpace=wrap;html=1;" parent="1" vertex="1">
                    <mxGeometry x="320" y="560" width="120" height="60" as="geometry"/>
                </mxCell>
                <mxCell id="Fh-EWv3gf_aP62KcKHGf-8" value="DAL" style="rounded=0;whiteSpace=wrap;html=1;" parent="1" vertex="1">
                    <mxGeometry x="320" y="720" width="120" height="60" as="geometry"/>
                </mxCell>
                <mxCell id="Fh-EWv3gf_aP62KcKHGf-10" value="db" style="shape=datastore;whiteSpace=wrap;html=1;" parent="1" vertex="1">
                    <mxGeometry x="350" y="800" width="60" height="60" as="geometry"/>
                </mxCell>
                <mxCell id="Fh-EWv3gf_aP62KcKHGf-11" value="helpers" style="rounded=0;whiteSpace=wrap;html=1;" parent="1" vertex="1">
                    <mxGeometry x="380" y="640" width="60" height="60" as="geometry"/>
                </mxCell>
                <mxCell id="Fh-EWv3gf_aP62KcKHGf-24" value="Router" style="rounded=0;whiteSpace=wrap;html=1;" parent="1" vertex="1">
                    <mxGeometry x="160" y="400" width="120" height="60" as="geometry"/>
                </mxCell>
                <mxCell id="Fh-EWv3gf_aP62KcKHGf-25" value="Controller" style="rounded=0;whiteSpace=wrap;html=1;" parent="1" vertex="1">
                    <mxGeometry x="160" y="480" width="120" height="60" as="geometry"/>
                </mxCell>
                <mxCell id="Fh-EWv3gf_aP62KcKHGf-26" value="Logics" style="rounded=0;whiteSpace=wrap;html=1;" parent="1" vertex="1">
                    <mxGeometry x="160" y="560" width="120" height="60" as="geometry"/>
                </mxCell>
                <mxCell id="Fh-EWv3gf_aP62KcKHGf-27" value="DAL" style="rounded=0;whiteSpace=wrap;html=1;" parent="1" vertex="1">
                    <mxGeometry x="160" y="720" width="120" height="60" as="geometry"/>
                </mxCell>
                <mxCell id="Fh-EWv3gf_aP62KcKHGf-28" value="db" style="shape=datastore;whiteSpace=wrap;html=1;" parent="1" vertex="1">
                    <mxGeometry x="190" y="800" width="60" height="60" as="geometry"/>
                </mxCell>
                <mxCell id="Fh-EWv3gf_aP62KcKHGf-29" value="helpers" style="rounded=0;whiteSpace=wrap;html=1;" parent="1" vertex="1">
                    <mxGeometry x="220" y="640" width="60" height="60" as="geometry"/>
                </mxCell>
                <mxCell id="Fh-EWv3gf_aP62KcKHGf-30" value="Router" style="rounded=0;whiteSpace=wrap;html=1;" parent="1" vertex="1">
                    <mxGeometry x="480" y="400" width="120" height="60" as="geometry"/>
                </mxCell>
                <mxCell id="Fh-EWv3gf_aP62KcKHGf-31" value="Controller" style="rounded=0;whiteSpace=wrap;html=1;" parent="1" vertex="1">
                    <mxGeometry x="480" y="480" width="120" height="60" as="geometry"/>
                </mxCell>
                <mxCell id="Fh-EWv3gf_aP62KcKHGf-32" value="Logics" style="rounded=0;whiteSpace=wrap;html=1;" parent="1" vertex="1">
                    <mxGeometry x="480" y="560" width="120" height="60" as="geometry"/>
                </mxCell>
                <mxCell id="Fh-EWv3gf_aP62KcKHGf-33" value="DAL" style="rounded=0;whiteSpace=wrap;html=1;" parent="1" vertex="1">
                    <mxGeometry x="480" y="720" width="120" height="60" as="geometry"/>
                </mxCell>
                <mxCell id="Fh-EWv3gf_aP62KcKHGf-34" value="db" style="shape=datastore;whiteSpace=wrap;html=1;" parent="1" vertex="1">
                    <mxGeometry x="510" y="800" width="60" height="60" as="geometry"/>
                </mxCell>
                <mxCell id="Fh-EWv3gf_aP62KcKHGf-35" value="helpers" style="rounded=0;whiteSpace=wrap;html=1;" parent="1" vertex="1">
                    <mxGeometry x="540" y="640" width="60" height="60" as="geometry"/>
                </mxCell>
                <mxCell id="Fh-EWv3gf_aP62KcKHGf-41" value="main router" style="rounded=0;whiteSpace=wrap;html=1;" parent="1" vertex="1">
                    <mxGeometry x="160" y="360" width="440" height="20" as="geometry"/>
                </mxCell>
                <mxCell id="Fh-EWv3gf_aP62KcKHGf-55" value="" style="endArrow=classic;html=1;rounded=0;strokeColor=#3333FF;entryX=0.5;entryY=0;entryDx=0;entryDy=0;exitX=0.136;exitY=1;exitDx=0;exitDy=0;exitPerimeter=0;" parent="1" source="Fh-EWv3gf_aP62KcKHGf-41" target="Fh-EWv3gf_aP62KcKHGf-24" edge="1">
                    <mxGeometry width="50" height="50" relative="1" as="geometry">
                        <mxPoint x="220" y="380" as="sourcePoint"/>
                        <mxPoint x="270" y="370" as="targetPoint"/>
                    </mxGeometry>
                </mxCell>
                <mxCell id="Fh-EWv3gf_aP62KcKHGf-59" value="" style="endArrow=classic;html=1;rounded=0;strokeColor=#3333FF;entryX=0.5;entryY=0;entryDx=0;entryDy=0;exitX=0.136;exitY=1;exitDx=0;exitDy=0;exitPerimeter=0;" parent="1" edge="1">
                    <mxGeometry width="50" height="50" relative="1" as="geometry">
                        <mxPoint x="219.85000000000014" y="460" as="sourcePoint"/>
                        <mxPoint x="220.01" y="480" as="targetPoint"/>
                    </mxGeometry>
                </mxCell>
                <mxCell id="Fh-EWv3gf_aP62KcKHGf-60" value="" style="endArrow=classic;html=1;rounded=0;strokeColor=#3333FF;entryX=0.5;entryY=0;entryDx=0;entryDy=0;exitX=0.136;exitY=1;exitDx=0;exitDy=0;exitPerimeter=0;" parent="1" edge="1">
                    <mxGeometry width="50" height="50" relative="1" as="geometry">
                        <mxPoint x="219.85000000000014" y="540" as="sourcePoint"/>
                        <mxPoint x="220.01" y="560" as="targetPoint"/>
                    </mxGeometry>
                </mxCell>
                <mxCell id="Fh-EWv3gf_aP62KcKHGf-61" value="" style="endArrow=classic;html=1;rounded=0;strokeColor=#3333FF;entryX=0.5;entryY=0;entryDx=0;entryDy=0;exitX=0.136;exitY=1;exitDx=0;exitDy=0;exitPerimeter=0;" parent="1" edge="1">
                    <mxGeometry width="50" height="50" relative="1" as="geometry">
                        <mxPoint x="249.79000000000013" y="620" as="sourcePoint"/>
                        <mxPoint x="249.95" y="640" as="targetPoint"/>
                    </mxGeometry>
                </mxCell>
                <mxCell id="Fh-EWv3gf_aP62KcKHGf-62" value="" style="endArrow=classic;html=1;rounded=0;strokeColor=#3333FF;entryX=0.5;entryY=0;entryDx=0;entryDy=0;exitX=0.336;exitY=1.004;exitDx=0;exitDy=0;exitPerimeter=0;" parent="1" edge="1">
                    <mxGeometry width="50" height="50" relative="1" as="geometry">
                        <mxPoint x="182.31999999999994" y="620.24" as="sourcePoint"/>
                        <mxPoint x="182.16" y="720" as="targetPoint"/>
                    </mxGeometry>
                </mxCell>
                <mxCell id="Fh-EWv3gf_aP62KcKHGf-63" value="" style="endArrow=classic;html=1;rounded=0;strokeColor=#2BC0FF;entryX=0.5;entryY=0;entryDx=0;entryDy=0;exitX=0.136;exitY=1;exitDx=0;exitDy=0;exitPerimeter=0;" parent="1" edge="1">
                    <mxGeometry width="50" height="50" relative="1" as="geometry">
                        <mxPoint x="379.85000000000014" y="460" as="sourcePoint"/>
                        <mxPoint x="380.01" y="480" as="targetPoint"/>
                    </mxGeometry>
                </mxCell>
                <mxCell id="Fh-EWv3gf_aP62KcKHGf-64" value="" style="endArrow=classic;html=1;rounded=0;strokeColor=#2BC0FF;entryX=0.5;entryY=0;entryDx=0;entryDy=0;exitX=0.136;exitY=1;exitDx=0;exitDy=0;exitPerimeter=0;" parent="1" edge="1">
                    <mxGeometry width="50" height="50" relative="1" as="geometry">
                        <mxPoint x="379.85000000000014" y="540" as="sourcePoint"/>
                        <mxPoint x="380.01" y="560" as="targetPoint"/>
                    </mxGeometry>
                </mxCell>
                <mxCell id="Fh-EWv3gf_aP62KcKHGf-66" value="" style="endArrow=classic;html=1;rounded=0;strokeColor=#2BC0FF;entryX=0.5;entryY=0;entryDx=0;entryDy=0;exitX=0.136;exitY=1;exitDx=0;exitDy=0;exitPerimeter=0;" parent="1" edge="1">
                    <mxGeometry width="50" height="50" relative="1" as="geometry">
                        <mxPoint x="379.85000000000014" y="780" as="sourcePoint"/>
                        <mxPoint x="380.01" y="800" as="targetPoint"/>
                    </mxGeometry>
                </mxCell>
                <mxCell id="Fh-EWv3gf_aP62KcKHGf-67" value="" style="endArrow=classic;html=1;rounded=0;strokeColor=#269922;entryX=0.5;entryY=0;entryDx=0;entryDy=0;exitX=0.136;exitY=1;exitDx=0;exitDy=0;exitPerimeter=0;" parent="1" edge="1">
                    <mxGeometry width="50" height="50" relative="1" as="geometry">
                        <mxPoint x="539.8500000000001" y="460" as="sourcePoint"/>
                        <mxPoint x="540.01" y="480" as="targetPoint"/>
                    </mxGeometry>
                </mxCell>
                <mxCell id="Fh-EWv3gf_aP62KcKHGf-68" value="" style="endArrow=classic;html=1;rounded=0;strokeColor=#269922;entryX=0.5;entryY=0;entryDx=0;entryDy=0;exitX=0.136;exitY=1;exitDx=0;exitDy=0;exitPerimeter=0;" parent="1" edge="1">
                    <mxGeometry width="50" height="50" relative="1" as="geometry">
                        <mxPoint x="539.8500000000001" y="540" as="sourcePoint"/>
                        <mxPoint x="540.01" y="560" as="targetPoint"/>
                    </mxGeometry>
                </mxCell>
                <mxCell id="Fh-EWv3gf_aP62KcKHGf-71" value="" style="endArrow=classic;html=1;rounded=0;strokeColor=#269922;entryX=0.5;entryY=0;entryDx=0;entryDy=0;exitX=0.136;exitY=1;exitDx=0;exitDy=0;exitPerimeter=0;" parent="1" edge="1">
                    <mxGeometry width="50" height="50" relative="1" as="geometry">
                        <mxPoint x="569.8000000000002" y="700" as="sourcePoint"/>
                        <mxPoint x="569.96" y="720" as="targetPoint"/>
                    </mxGeometry>
                </mxCell>
                <mxCell id="Fh-EWv3gf_aP62KcKHGf-72" value="" style="endArrow=classic;html=1;rounded=0;strokeColor=#269922;entryX=0.977;entryY=0.017;entryDx=0;entryDy=0;exitX=0.136;exitY=1;exitDx=0;exitDy=0;exitPerimeter=0;entryPerimeter=0;" parent="1" target="Fh-EWv3gf_aP62KcKHGf-8" edge="1">
                    <mxGeometry width="50" height="50" relative="1" as="geometry">
                        <mxPoint x="539.8500000000001" y="620" as="sourcePoint"/>
                        <mxPoint x="540.01" y="640" as="targetPoint"/>
                        <Array as="points">
                            <mxPoint x="460" y="630"/>
                        </Array>
                    </mxGeometry>
                </mxCell>
                <mxCell id="Fh-EWv3gf_aP62KcKHGf-73" value="" style="endArrow=classic;html=1;rounded=0;strokeColor=#269922;entryX=0.5;entryY=0;entryDx=0;entryDy=0;exitX=0.136;exitY=1;exitDx=0;exitDy=0;exitPerimeter=0;" parent="1" edge="1">
                    <mxGeometry width="50" height="50" relative="1" as="geometry">
                        <mxPoint x="569.8000000000002" y="620" as="sourcePoint"/>
                        <mxPoint x="569.96" y="640" as="targetPoint"/>
                    </mxGeometry>
                </mxCell>
                <mxCell id="Fh-EWv3gf_aP62KcKHGf-75" value="" style="endArrow=classic;html=1;rounded=0;strokeColor=#990202;entryX=0;entryY=0.667;entryDx=0;entryDy=0;exitX=1;exitY=0.5;exitDx=0;exitDy=0;entryPerimeter=0;" parent="1" source="Fh-EWv3gf_aP62KcKHGf-11" target="Fh-EWv3gf_aP62KcKHGf-33" edge="1">
                    <mxGeometry width="50" height="50" relative="1" as="geometry">
                        <mxPoint x="549.8500000000001" y="710" as="sourcePoint"/>
                        <mxPoint x="550.01" y="730" as="targetPoint"/>
                        <Array as="points">
                            <mxPoint x="460" y="670"/>
                            <mxPoint x="460" y="760"/>
                        </Array>
                    </mxGeometry>
                </mxCell>
                <mxCell id="Fh-EWv3gf_aP62KcKHGf-76" value="" style="endArrow=classic;html=1;rounded=0;strokeColor=#3333FF;entryX=0.5;entryY=0;entryDx=0;entryDy=0;exitX=0.136;exitY=1;exitDx=0;exitDy=0;exitPerimeter=0;" parent="1" edge="1">
                    <mxGeometry width="50" height="50" relative="1" as="geometry">
                        <mxPoint x="219.85000000000014" y="780" as="sourcePoint"/>
                        <mxPoint x="220.01" y="800" as="targetPoint"/>
                    </mxGeometry>
                </mxCell>
                <mxCell id="Fh-EWv3gf_aP62KcKHGf-77" value="" style="endArrow=classic;html=1;rounded=0;strokeColor=#269922;entryX=0.5;entryY=0;entryDx=0;entryDy=0;exitX=0.136;exitY=1;exitDx=0;exitDy=0;exitPerimeter=0;" parent="1" edge="1">
                    <mxGeometry width="50" height="50" relative="1" as="geometry">
                        <mxPoint x="539.8500000000001" y="780" as="sourcePoint"/>
                        <mxPoint x="540.01" y="800" as="targetPoint"/>
                    </mxGeometry>
                </mxCell>
                <mxCell id="Fh-EWv3gf_aP62KcKHGf-80" value="" style="endArrow=classic;html=1;rounded=0;strokeColor=#2BC0FF;entryX=0.25;entryY=0;entryDx=0;entryDy=0;exitX=0.136;exitY=1;exitDx=0;exitDy=0;exitPerimeter=0;" parent="1" target="Fh-EWv3gf_aP62KcKHGf-8" edge="1">
                    <mxGeometry width="50" height="50" relative="1" as="geometry">
                        <mxPoint x="350.0000000000001" y="620.0000000000001" as="sourcePoint"/>
                        <mxPoint x="350.15999999999997" y="640" as="targetPoint"/>
                    </mxGeometry>
                </mxCell>
                <mxCell id="Fh-EWv3gf_aP62KcKHGf-81" value="" style="endArrow=classic;html=1;rounded=0;strokeColor=#990202;entryX=0.75;entryY=0;entryDx=0;entryDy=0;exitX=0.5;exitY=1;exitDx=0;exitDy=0;" parent="1" source="Fh-EWv3gf_aP62KcKHGf-11" target="Fh-EWv3gf_aP62KcKHGf-8" edge="1">
                    <mxGeometry width="50" height="50" relative="1" as="geometry">
                        <mxPoint x="450" y="680" as="sourcePoint"/>
                        <mxPoint x="490" y="760" as="targetPoint"/>
                        <Array as="points">
                            <mxPoint x="410" y="710"/>
                        </Array>
                    </mxGeometry>
                </mxCell>
                <mxCell id="Fh-EWv3gf_aP62KcKHGf-83" value="strict architecture&lt;br&gt;" style="text;html=1;align=center;verticalAlign=middle;resizable=0;points=[];autosize=1;strokeColor=#6c8ebf;fillColor=#dae8fc;" parent="1" vertex="1">
                    <mxGeometry x="315" y="-35" width="110" height="30" as="geometry"/>
                </mxCell>
                <mxCell id="Fh-EWv3gf_aP62KcKHGf-86" value="unrestricted architecture:&lt;br&gt;&lt;br&gt;but two laws:&lt;br&gt;1) the arrows (function calls) will always go down, they can go from logic straight to DAL, or to multiple hlelpers and DALs, but never, horizontaly.&lt;br&gt;&lt;br&gt;2) each file shuld be at the parrent folder most suiltble for it, a user helper must be under users, even if it also calls post_helpers function" style="text;html=1;strokeColor=#23445d;fillColor=#bac8d3;align=center;verticalAlign=middle;whiteSpace=wrap;rounded=0;" parent="1" vertex="1">
                    <mxGeometry x="620" y="590" width="270" height="160" as="geometry"/>
                </mxCell>
                <mxCell id="Fh-EWv3gf_aP62KcKHGf-91" value="" style="endArrow=classic;html=1;rounded=0;strokeColor=#2BC0FF;exitX=1;exitY=0.5;exitDx=0;exitDy=0;" parent="1" source="Fh-EWv3gf_aP62KcKHGf-7" edge="1">
                    <mxGeometry width="50" height="50" relative="1" as="geometry">
                        <mxPoint x="444" y="589.9999999999998" as="sourcePoint"/>
                        <mxPoint x="480" y="730" as="targetPoint"/>
                        <Array as="points">
                            <mxPoint x="464" y="590"/>
                            <mxPoint x="464" y="730"/>
                        </Array>
                    </mxGeometry>
                </mxCell>
                <mxCell id="6" value="" style="endArrow=classic;html=1;rounded=0;strokeColor=#269922;entryX=0.5;entryY=0;entryDx=0;entryDy=0;exitX=0.136;exitY=1;exitDx=0;exitDy=0;exitPerimeter=0;" edge="1" parent="1">
                    <mxGeometry width="50" height="50" relative="1" as="geometry">
                        <mxPoint x="539.7600000000001" y="380" as="sourcePoint"/>
                        <mxPoint x="539.92" y="400" as="targetPoint"/>
                    </mxGeometry>
                </mxCell>
                <mxCell id="7" value="" style="endArrow=classic;html=1;rounded=0;strokeColor=#2BC0FF;entryX=0.5;entryY=0;entryDx=0;entryDy=0;exitX=0.136;exitY=1;exitDx=0;exitDy=0;exitPerimeter=0;" edge="1" parent="1">
                    <mxGeometry width="50" height="50" relative="1" as="geometry">
                        <mxPoint x="379.76000000000016" y="380" as="sourcePoint"/>
                        <mxPoint x="379.92" y="400" as="targetPoint"/>
                    </mxGeometry>
                </mxCell>
            </root>
        </mxGraphModel>
    </diagram>
</mxfile>